<svg fill="none" height="830" viewBox="0 0 1912 830" width="1912" xmlns="http://www.w3.org/2000/svg" xmlns:xlink="http://www.w3.org/1999/xlink"><clipPath id="a"><path d="m213 314h116.2v284h-116.2z"/></clipPath><g fill="#0c021c"><path d="m692.2 306-25.1-29.5h109.2l-25.1 29.5z"/><path d="m657.3 261.4c-7.3 0-13.3 5.9-13.3 13.3 0 7.3 5.9 13.3 13.3 13.3 7.3 0 13.3-5.9 13.3-13.3s-5.9-13.3-13.3-13.3zm0 21.4c-4.5 0-8.1-3.6-8.1-8.1s3.6-8.1 8.1-8.1 8.1 3.6 8.1 8.1-3.6 8.1-8.1 8.1z"/><path d="m708.7 173.2c0-1 .1-2.1.8-2.9.7-.7 1.7-.8 2.6-.9 4.2-.4 8.4-.5 12.6-.3 1 0 2 .1 2.8.8s1.1 1.8 1.3 2.8c2 9.2 8 24.1 6.1 27.6-2.6 3.8-4.9.2-6.3-1.8-1 7.3 5.7 14 4.8 21.3-.1.6-.2 1.2-.6 1.6-1.3 1.6-3.8-.2-5-1.9-.2 18.2-.4 36.5-.6 54.7 0 3.3-.1 6.7-1.1 9.9s-3.2 6.1-6.4 7.2c-6.9 2.4-11-4-10.9-9.9.2-8.3-.2-16.6-.4-25-.5-17.9-.6-35.9-.4-53.8.2-9.8.4-19.6.7-29.4z"/><path d="m718.7 170.1c.1-4.6-5.1-7-7-11.1-1.5-3.3-.8-7.3.8-10.5s3.9-6 5.7-9.1 3.1-6.9 2.2-10.4c2.2 7 4.5 14.8 2.1 21.8 2.7-2.5 4.6-5.8 5.3-9.5 1 5 1.9 10.5-.5 15-1.4 2.7-3.9 4.7-5.4 7.4-1.8 3.3-1.9 7.4-2 11.3-.4-2.1-1.2-3-1.2-4.9z"/><path d="m1411.4-46-96 25.7-2.3 56.2-74.9 9.4-9.4 44.4-51.5-2.3-14 44.5-81.9 7-2.4 44.5-98.3 4.7v46.8l-159.1 11.7-2.4 46.8-180.2 14v42.1l-58.5 11.8-2.4 39.7-37.4 4.7-7 35.1-44.5 4.7 2.3 39.8-42.1-2.3-11.7 35.1-44.5 4.6-4.6 37.5-46.8-4.7-2.4 35.1-117 2.4-4.7 51.5-138.1 4.6-2.3 39.8-77.3 37.5 16.4 103 56.2-79.6 140.4-6.8 5.5-68.8 150-11.6 1.1-49.3 47.2-3.1 12.6-47.2 59.7-3.2-5.2-38.8 49.3-5.2-4.2-43 60.8-3.2-15.7-37.8 47.2-10.4-4.2-34.7 60.9-2.1 2.1-45.1 251.7 45.1 2.1-68.1 181.5-18.9-5.3-49.3 106-2.1 2.1-56.7 65-7.3 2.1-46.2 72.4-4.2v-45.1l73.4-4.2 2.1-62.9z"/><path d="m425.7 737c28.4-72.9 68.9-141.1 119.5-200.7 11.5-13.6 23.9-27.1 39.8-35.2s36-10 51.1-.5c17 10.7 23.2 32 27.6 51.6 15.3 68.7 23.5 139.1 24.3 209.5 25.5-.9 51-1.8 76.5-2.6 3.3-.1 7-.4 9.2-2.8 2.4-2.6 2.3-6.5 2.1-10-4.7-74.7 2.4-150.1 20.9-222.5 7.1-27.9 16.5-56.4 36.4-77.2s52.8-31.8 78.3-18.5c19.5 10.1 30.3 31.3 38.9 51.5 38.6 91.1 57.1 190.8 53.5 289.7 31.1-4.1 62.2-4.7 93.4-2.4-4-67.7-4.3-135.7-1.1-203.5 1.7-34.9 4.4-70.1 14.4-103.6 16.2-54.2 53.3-103.5 104.8-127 51.5-23.6 117-17.9 159.1 19.9 39.6 35.6 53.2 91.2 62.3 143.6 14.9 86.5 22.6 174.3 23 262.1 0 2.2.2 4.8 2 6.1 1.2.9 2.9.9 4.4.9 27.8-.4 55.5-.8 83.3-1.2 1.2-260.2-2.8-520.4-13.5-780.2996-36.6 2.8-84.9 5.7-118.8 19.69999-27.8 11.50001-52.1 29.80001-76.4 47.50001-158.1 114.5996-332.8 206.1996-517 270.9996-40.8 14.4-91.3 9.1-134.5 11.8-8.9.6-18.2 1.2-26.2 5.2-5.9 2.9-10.8 7.5-15.6 12.1-8 7.5-15.9 15.1-23.8 22.6-23 21.9-46 43.8-68.9 65.7-9.3 8.8-18.6 17.7-27.8 26.5-35.5 33.8-71 67.6-109 98.6-32 26.1-65.8 50.1-101.4 71-17.6 10.3-36 20-55.9 24.6-25.2 5.7-52.5 3.2-75.9 14.2s-38.7 45.3-19.3 62.4c8.1 7.2 19.6 8.9 30.4 10.1 76.9 8.1 153.2.8 229.9-9.9z"/></g><g clip-path="url(#a)"><path d="m232.2 423.5s-12.5.9-1.4 16.2c6.7 9.2 4.8-5.6 4.8-5.6z" fill="#ce2009"/><path d="m230.4 426c-3.4-1.1-8-3-10.7-5.3s-4.7-5.7-4.6-9.2c.1-2.2 1-4.4 1.9-6.4l14.4 8.8z" fill="#ce2009"/><path d="m275.8 429.198s-38.3 0-43.1-.8c0 0-4.7 7.8-1 16.8s5.2 8.3 3.2 25.1-2.2 47.6.8 55.1 17.5 9.6 17.5 9.6.7-10.3.2-17.4l2.2 9.5 19.6 2.3s-.2-5.6.2-9c.3-3.3 2.8-80.9.4-91.2z" fill="#ff4000"/><path d="m268 363.699s-11.5 7.5-26.5 2.3c0 0-12.1 40.8-12.4 67.3 0 0 24.4 1.6 44.4 0l6-9.799z" fill="#fff"/><path d="m248.5 314.699c3.6 2 6.3 5.6 7.3 9.6.1.6-2.2 1.6-2.7 1.5-1.3-.2-1.3-1.4-1.6-2.5-.7-3-1.7-5.9-3-8.6z" fill="#0c021c"/><path d="m235 339.2c-3.5 5.3-5.9 11.3-9.1 16.8s-7.3 10.7-9.4 16.7c-.5 1.4-.8 2.8-.9 4.3-.1 3.4 1.4 6.6 2.9 9.6.6 1.2 1.3 2.6 2.7 2.9.6.1 1.3 0 1.9-.2 4.5-1.3 7.9-4.9 10.9-8.5 2-2.4 3.9-4.9 5.7-7.5 2.6-3.6 5.1-7.5 6.3-11.8.9-3.3 1.1-6.8 1.5-10.3.5-3.9 1.4-7.8 2.6-11.5 1.1-3.3 4.2-13.4-2.8-10.9-5.2 1.7-9.3 5.9-12.3 10.4z" fill="#ce2009"/><path d="m269.4 326.199c1.8 1 3.5 2.3 5.5 2.9.8.2 1.7.3 2.3 1 .4.4.5 1 .6 1.6 1.8 9.8-.5 20.4-6.3 28.5-2 2.8-4.4 5.3-7.5 6.8-2.5 1.2-5.4 1.7-8.2 1.9-2.3.1-4.7.1-6.6-1.2-1.4-.9-2.4-2.3-3.2-3.8-6.2-11.2-5-26.1 3-36 5.1-6.3 14-5.4 20.4-1.7z" fill="#ff4000"/><g fill="#0c021c"><path d="m268.964 334.546c.945-.308 1.241-2.004.66-3.79s-1.819-2.984-2.764-2.676c-.945.307-1.241 2.004-.66 3.79.581 1.785 1.819 2.983 2.764 2.676z"/><path d="m278 332.398c1.381 0 2.5-1.119 2.5-2.5 0-1.38-1.119-2.5-2.5-2.5s-2.5 1.12-2.5 2.5c0 1.381 1.119 2.5 2.5 2.5z"/><path d="m278.3 340.898s-3.6 5.2-7.9 2.3c0 0 2.8 4.4 7.7-.5z"/><path d="m266.8 328s-5.3 3.4-6.4 5.9 2.8-1.1 3.4-1.7 3.2-2.6 3.2-2.6z"/></g><path d="m246.1 341.298c-1.7 11-2 22.2-3 33.3-.7 7.2-1.3 14.5-1.2 21.7 0 2.4.2 4.9 1.3 7s3.4 3.8 5.8 3.4c1.2-.2 2.2-.9 3.1-1.7 2.6-2.4 3.9-5.9 4.8-9.3 2.2-7.9 3.1-16.1 2.8-24.3-.6-13.1-4.5-26.1-2.7-39 .2-2.3-8.1-8.7-10.9 8.9z" fill="#ce2009"/><path d="m297.7 400.1-14.2 12.1c.5 1.6.9 3.3-.3 4.5s-3.8 2.1-5.3 2.8c-2.7 1.3-4.3 2.6-7.1 5.2l-.2.2c-3 3.7-4.3 8.7-3.5 13.3.6 3.3 2.2 6.5 1.7 9.8 1.9-2 3.3-5 3.1-7.8 1.1 2.5 1.6 5.2 1.5 8 2.2-1.7 2.5-4.8 2.7-7.6.6 2.4.8 4.9.3 7.3 2.2-1.9 3.4-4.9 3.3-7.9 0-2.9-1.1-5.8-2.8-8.3 4.2-1.9 11.5-5.4 15.2-8.1s6.8-6.3 8.2-10.7.6-9.6-2.6-12.8z" fill="#ce2009"/><path d="m241.9 370.398c-10.9 9.8-20.2 21.3-27.6 33.9 5.2 3.6 10.6 7.3 16.5 9.6z" fill="#fff"/><path d="m255.6 524.499c-4.3-14.4-.8-51.1-.3-60.9.1-2.1 0-3.7-.7-5.4-.9-2-2.7-3.5-4.2-5.1-4.1-4.6-5.6-11.5-3.8-17.4 0 0-2.5 3.8-1.7 8.4s1.6 6.6 4.7 10.3c2.2 2.6 4 3.1 4.1 6.4s-.4 16.6-.7 21.8-1.2 23.3-.4 31.8 3.7 12.7 3.7 12.7z" fill="#ce2009"/><g fill="#0c021c"><path d="m254.8 524.699 21.3.3c1 12.3 1.8 25.3 9.4 35.1 6.1 7.9 10 8.4 19.3 12 4.3 1.7 14.3 1.7 21.1 10 1.6 1.9 2.5 6.6 1.9 9-.5 2-2.2 3.4-4.1 4.1s-4.7 1.4-6.7 1.6c-7.9.7-14.4.7-21.1-.4-9.2-1.6-18.1-10.2-22.7-8.5-2.4 1.7-1.5 5.1-1.3 8.4-5.3 1.6-11.6-.2-17.2-.4-2-15.5-1.4-32.7-.7-48.3.2-7.7.4-15.2.8-22.9z"/><path d="m254.2 524.699c-2.3-.2-4.5-.2-6.8-.2-4.4-.1-8.8-.2-13.2-.3-2 22.8-2.3 48-2.2 70.9 4.8.8 10.9.4 15.7.5.4-1.5-.7-4.8 1.1-6.1 2.8-1.1 5.1 2 5.1 2"/><path d="m247.7 329.899c-1.1-3.1-2.8-6.1-4.9-8.6 3.8.1 6.9 3.1 9.5 5.9z"/></g><path d="m305.3 394.999s-17.1 17.2-23.3 19.5c0 0-25.8-27.7-21.1-38.5s6.4-10.1 10.1-8.2 9.2 3.1 12.2 8.5c0 .1 19 7.5 22.1 18.7z" fill="#fff"/><path d="m262.1 326.8c.2-.5.4-1.1.1-1.5-.1-.1-.2-.2-.3-.2-.2 0-.3.2-.4.4-.2.5-.4 1-.7 1.5 0-.1-.2-.2-.4-.1s-.2.2-.2.4c-.2.6-1.2 3.3-.2 3 .8-.3 1.8-2.8 2.1-3.5z" fill="#0c021c"/></g><path d="m1738-17.5005c35.5 67.5 136 152.4995 172.5 166.9995l-268.5 146.001-119.5-219 10-149.5005c56.67-4 177.1 1.5 205.5 55.5z" fill="#0c021c" stroke="#0c021c"/></svg>