<svg fill="none" height="447" viewBox="0 0 823 447" width="823" xmlns="http://www.w3.org/2000/svg"><g fill="#0c021c"><path d="m665.283 370.797c1.901-9.948 6.931-19.002 10.507-28.391 7.266-19.114 8.719-40.799 2.236-60.248-2.459-7.265-6.036-14.307-7.266-21.908-3.465-21.461 11.96-41.022 26.715-57.006-10.172.671-20.008 5.142-27.05 12.519-3.13-5.812-9.724-9.389-16.319-8.942s-12.631 5.03-14.978 11.178c-3.242-5.366-7.825-10.619-13.972-11.625-6.148-1.006-13.414 4.359-11.96 10.395-10.284-9.501-25.709-12.854-39.01-8.383 9.836 7.042 19.896 14.084 27.385 23.585s12.183 21.908 9.948 33.756c-1.677 8.719-6.93 16.208-10.507 24.367-8.607 19.561-7.154 43.146 3.8 61.477 5.142 8.719 12.407 16.32 15.425 26.044 5.254 16.879-3.912 35.322-16.878 47.505 9.054 1.677 17.996 3.465 27.05 5.142 9.948 1.9 20.008 3.801 30.068 3.018 6.148-.447 16.208-2.012 20.679-6.706 7.041-7.378 1.788-8.16-4.136-14.867-9.725-10.954-14.531-26.379-11.737-40.91z"/><path d="m664.613 346.988c10.619 5.477 28.503 7.601 40.351 6.595 12.184-1.006 20.008-1.118 31.186-5.477-14.531 27.944-26.044 45.493-25.597 73.884.112 3.465-18.443 3.577-20.679.559-4.024-5.253-2.012-15.537-2.906-20.902-3.13-18.89-11.848-38.898-22.355-54.659z"/><path d="m588.158 421.766-17.214-112.112c-15.984 9.837-28.391 0-28.391 0l-2.906 20.679c-5.813-5.477-15.761-4.359-19.673 2.794-2.012 3.577-2.347 7.936-1.677 12.072 1.342 9.278 7.713 17.549 16.208 21.573l-7.936 56.335zm-57.118-65.501c-2.906-3.8-5.477-8.271-5.477-13.19 0-3.018 1.341-6.371 4.135-7.377 3.242-1.118 6.148 2.012 8.607 3.353l-3.129 22.356c-1.342-1.789-2.795-3.353-4.136-5.142z"/><path d="m569.267 270.31c-8.495 12.966-9.277 29.397-9.724 44.934-3.353-18.108-6.93-36.886-16.99-52.2-3.465-5.253-7.936-10.171-13.86-11.96-9.837-3.018-20.567 3.689-25.597 12.743s-5.813 19.896-6.483 30.291c-.559 8.495-1.006 19.896-1.565 29.286-1.677.559-5.03 4.471-5.812 5.7-1.565 2.571-2.124 5.701-2.236 8.719 0-1.118 4.024-4.471 4.806-5.589.559-.782 1.23-1.677 1.901-2.571-.559 3.13-.783 6.371-.112 9.278.447 1.676 1.118 3.129 1.788 4.694.783 1.677 1.565 3.353 2.348 5.03 2.57-6.148 2.906-13.189.782-19.449-.671-2.012-1.341-4.247-2.236-6.259.783-3.354 1.565-6.819 2.124-10.396 0 .224 0 .447.112.671.782 4.806 5.477 15.761 8.607 17.325 2.124-3.912 1.453-8.718-.559-12.742-1.118-2.236-5.924-8.942-7.601-8.16.782-4.583 1.341-9.166 1.9-12.966.112-.894.224-1.788.336-2.683.447 3.13 1.676 6.819 2.459 9.166 1.788 5.589 5.812 10.507 10.954 13.525 1.676-5.253-.894-11.066-4.248-15.425-2.123-2.794-5.812-8.83-8.718-10.731.559-4.582 1.117-9.277 2.459-13.636.559-1.901 1.229-3.801 2.123-5.589.336 2.347 1.118 4.806 1.454 6.818.67 3.912 1.453 7.936 3.465 11.513 1.9 3.353 4.806 6.036 8.271 7.601.335-5.142-1.118-10.395-3.912-14.754-1.788-2.795-4.136-5.254-6.148-7.937-1.006-1.453-1.788-3.018-2.459-4.694 2.012-3.689 4.695-6.93 8.272-9.054.558-.335 1.117-.671 1.676-.894-.112 1.676.224 3.912.336 4.694.335 4.695 1.453 9.501 4.024 13.525 2.123 3.242 5.253 5.924 6.371 9.613 2.682-6.371 2.124-14.084-1.453-20.008-1.23-2.012-2.795-3.8-4.36-5.589-.447-.447-1.453-2.012-2.459-3.13 5.03-1.341 10.619-.558 14.308 3.13 2.571 2.571 3.8 6.036 5.03 9.501 7.153 19.785 13.525 40.24 21.573 59.577 3.353-13.19 2.235-26.491 9.501-38.898 3.465-5.813 8.159-10.843 12.071-16.32 6.483-9.053 10.619-19.784 12.072-30.85-7.712 8.719-17.996 15.314-24.591 25.15z"/><path d="m681.715 77.3849c-3.466 3.9122-6.931 7.8244-10.507 11.6248 1.341-5.1418 2.123-10.507 2.347-15.8723-4.806 9.7245-10.619 18.8902-17.325 27.3856-4.471 5.7-9.837 11.289-16.543 13.413-.559-1.006-1.342-2.012-2.124-2.795 3.241-1.9 5.142-5.588 5.7-9.277.559-3.6887-.111-7.4891-1.117-11.1777-.336-1.1178-.671-2.2355-1.342-3.2415 4.919-7.3772 7.936-15.8723 8.607-24.7026-5.142 3.5768-9.724 7.8243-13.637 12.6307-1.229 1.4531-2.347 3.018-3.465 4.4711-.335-.6707-.782-1.3413-1.229-2.012-.783-1.2295-1.789-2.3473-3.13-2.7944-2.012-.5589-4.136.6707-5.142 2.4591s-1.341 3.8004-1.676 5.9241c-.671-4.5828-7.266-6.5947-10.954-3.8003-1.006.6706-1.677 1.6766-2.236 2.6826-4.695-6.4831-11.513-11.513-19.114-13.8603 4.024 8.9421 8.048 18.1078 14.196 25.7086-1.565 1.6767-2.795 4.0239-3.353 6.2596-.447 2.012-.783 4.247-.559 6.259-9.166-6.9298-20.567-10.842-32.08-10.6184 6.818 12.9664 19.226 22.8024 33.421 26.4914 2.459.67 5.03 1.117 7.154 2.459 5.142 3.353 6.036 10.507 5.589 16.654-.671 9.39-3.018 18.555-4.471 27.833-1.006-3.801-2.236-7.489-3.913-10.954-10.507-22.244-35.433-34.428-59.8-37.893-15.202-2.123-32.639-.67-43.146 10.507 17.773-2.459 35.657 1.677 53.094 5.813 5.924 1.453 12.072 2.906 17.214 6.259 4.918 3.242 8.718 8.048 12.295 12.743 8.83 11.401 17.884 23.585 19.785 37.78-2.46-9.389-11.625-15.09-20.12-19.896-11.849-6.818-24.032-13.637-37.445-16.208-13.413-2.57-28.615.112-38.004 9.948 19.784.671 39.904 1.565 58.235 8.943 15.649 6.259 31.633 18.89 35.992 35.88 2.571 10.172 4.471 39.122 18.89 39.345.112-8.607-.782-17.437-2.123-26.379.894 1.006 1.9 1.9 3.018 2.683.447-10.396-3.689-20.12-6.707-29.845-3.018-9.948-4.695-21.237.447-30.179 8.383 11.513 19.449 21.125 31.856 27.944-.111-5.924-2.123-11.737-5.588-16.655 5.588.894 10.954 3.13 15.537 6.483-3.242-8.607-7.825-16.99-14.979-22.579-7.153-5.7-17.437-8.159-25.708-4.359 2.459-9.054 3.912-18.443 4.359-27.832.112 0 .224 0 .336-.112 15.201.894 30.962-3.242 42.586-12.966 12.072-9.613 19.114-25.3735 16.879-40.5751z"/><path d="m791.479 160.995c-1.117 4.806-.894 10.059.783 14.754-.447 2.124-.112 4.471.894 6.371.224.447.671 1.006 1.229.895.448-.112.671-.559.783-1.006 1.006-3.689.894-7.601-.559-11.178 1.118-2.906.894-6.371-.671-9.166 2.012-1.229 2.348-4.359.671-6.036-.894-.894.782-2.123-1.23-3.018-1.788 2.459-3.241 5.142-1.9 8.384z"/><path d="m821.883 95.4925c.782-1.006 1.229-2.3473.67-3.4651.112-.2235.336-.4471.448-.5589-20.008 13.9725-20.008 7.6008-37.11 16.4315-3.465 1.788-6.819 3.688-10.507 4.806-2.795.894-5.813 1.118-8.719 1.788-2.794.671-6.036 1.565-8.942 2.907 4.024-6.595 7.377-12.855 9.613-18.5553 1.118-1.7884 2.012-3.5768 2.682-4.9181 2.683-4.9181 4.695-10.2834 7.825-14.8662.335-.4471.671-1.0061 1.006-1.4532-.335 2.6827-.112 5.3653.67 7.9362-1.229 2.9062-1.229 6.3713.224 9.1657-2.012 1.1177-2.571 4.2475-1.006 5.9239.783.894-.671 4.583 1.23 3.801 2.57-.336 2.571-6.0363 1.453-9.2779 1.341-4.8064 2.235-9.7245.894-14.5309 0 0 0 0-.112 0 .559-2.1238.447-4.3593-.559-6.2595 2.236-2.2355 4.695-4.2475 7.489-5.8123.112.3353.336.6706.671.7824-1.006 3.018-2.906 7.9361-.894 9.3892 1.341.7824 2.794-3.3533 2.012-5.2535.894-2.2355 1.565-4.5828 2.235-6.9301.894-.3353 1.677-.6707 2.571-1.006-1.453 2.5708-1.565 7.0419-1.9 8.9421.335.1118.671.3354 1.006.4471-1.118 2.5709-3.465 6.7066-2.683 7.8244.336 1.1177 1.118 0 1.677 0-.559 2.3473-.783 4.8064-.783 7.2654.671.5589.895-.1117 1.342-.2235-.894 2.6826 2.012 6.0359 2.124 4.6946.111-1.3413-.336-2.9062-1.454-3.6886 1.565-2.7944 1.565-6.3713.224-9.2775 1.453-2.6826 1.788-6.0359.782-9.0539 1.006-2.2355 1.677-4.6946 2.124-7.1537.112.4471.783.5589 1.006.2236 1.118 3.6886 1.118 7.8243 0 11.5129-.112.3354-.223.6708-.112.8943.112.2236.559.4471.783.2235-.447 1.7884-.336 3.6887.447 5.3653 1.229.2236 1.341-2.3473 1.565-3.6886.782-2.2356 1.118-4.5828.894-6.9301 0 .4471.224.8942.671 1.1177 0 0 1.453-4.9181-.447-6.7066-1.23-1.1177-1.342-3.8004-4.36-3.8004-.447 0-.782.1118-1.118.2236-1.229-.1118-2.459-.1118-3.688 0 .782-3.4651 1.229-6.9302 1.453-10.507 0-.6707-.559-1.6767-1.006-1.2295 1.788-1.5649-.894-6.2596-3.13-6.2596-.223 0-.447.1118-.67.1118 0-2.3473-.224-4.5828-.559-6.9301-1.789 21.5728-16.767 39.3453-25.821 59.1298-15.872 23.0256-37.333 55.1056-56.894 73.5486-.223-1.006-.559-2.012-1.006-3.018 1.118-2.459.894-5.365-.67-7.601 2.012-1.005 2.347-3.688.67-5.029-.671-.559 0-1.23-.223-1.789 1.229-4.695 1.9-9.389 1.453-13.972-2.124 11.401-11.849 30.291-19.114 39.345-6.036 7.378-46.499 29.398-41.693 40.463 5.477 12.743 19.226-7.489 22.579-11.177 7.936-8.719 17.214-16.767 28.727-20.232 1.341.112 2.682.224 4.247.559 5.589 1.118 11.625 2.795 14.866 7.377 3.801 5.254 2.795 12.296 1.789 18.667-1.453 8.607-2.906 17.214-4.471 25.82v-.111c-2.236 2.235-3.801 6.371-3.13 9.612.112.336.447.671.559.448-1.453 2.235-1.565 5.253-.224 7.489-.894 2.906-.559 6.147 1.006 8.83.671-.447.783-1.341.783-2.124.112-1.453.223-2.794.335-4.247.112-1.342.224-2.683 0-4.024-.112-1.006-.447-2.012-.447-3.018 0-1.342.335-3.13-.894-3.912.894-1.118 1.341-2.571 1.229-4.024 1.453-3.577 2.907-7.154 4.471-10.843-.447 5.924-.447 11.96-.782 17.885-.224 2.794-.335 5.588-.447 8.383-.112 2.571.559 5.477 1.006 7.936.671 4.024-1.118 11.177 1.229 11.736 2.124.559 3.801-5.477 3.577-8.83-.112-.894-.223-1.788-.335-2.683-.335-2.682-.112-5.477.335-8.159.336-1.789.783-3.577.783-5.366 0-1.788-.559-3.8-1.901-4.806 2.124-3.13 2.012-7.713 1.006-11.513-.67-2.347-1.341-6.148-3.129-7.712 1.341-3.13 2.571-6.26 3.912-9.501 1.788 4.135 4.471 7.936 7.712 11.065-2.012 2.907.895 6.595.112 9.613-1.229 4.583-1.341 9.501-.223 14.084.111.559.335 1.23 1.006 1.453.223.112.559 0 .782-.223-.223 1.453-.335 2.906-.335 4.359 0 .559.223 1.229.671 1.341.558.112 1.005-.559 1.117-1.118 1.677-5.03 1.9-10.507.671-15.648-.335-1.677-.894-3.354-.671-5.142.224-1.565 1.006-3.689-.447-4.471.224-.559.335-1.23.447-1.789 3.13 2.348 6.595 4.136 10.284 5.366.111 1.788 3.353 4.471 3.465 6.595.112.782-.112 1.453.112 2.235.223.783.894 1.453 1.564 1.23-2.012 2.794-2.123 6.594-1.788 10.059.335 3.466 1.23 6.931.671 10.396-.224 1.565-.559 3.353.559 4.359.335.224.67.447.894.782.335.559.223 1.342 0 1.901-1.453 5.588-.112 11.736 3.353 16.319 1.341-4.695 1.23-9.725-.223-14.307-.224-.559-.448-1.23-.336-1.901.112-.558.447-1.006.671-1.453 1.9-3.241 2.124-7.489.559-10.954-.336-.67-.671-1.229-.783-1.9-.112-.782.112-1.677.336-2.459.559-2.683.223-5.589-.895-8.16 3.13-1.565 3.913-6.036 2.236-8.942-.335-.559-1.006-1.341-1.788-2.012h.111c-.112 0-.111-.112-.223-.112-1.677-1.453-3.913-2.906-5.701-3.129-10.73-6.483-20.12-15.761-22.355-27.833-1.118-6.594-.224-13.86-4.024-19.337-2.795-4.024-7.489-6.148-12.296-7.377 3.577-1.118 7.378-2.236 10.843-3.13.335.224.894.224 2.012 0 1.453 2.571 3.8 4.583 6.595 5.142.335 2.347.782 4.806 1.117 7.153.112.559.112 1.006.224 1.565.559 3.689 1.118 7.489 1.676 11.178.448 2.683.895 5.477 2.571 7.489.783-3.018 1.342-6.036 1.454-9.166.111-2.012-.001-4.024-.336-6.036-.335-1.676-.894-3.241-1.676-4.694 1.564-1.9 1.788-4.583 1.006-6.93-1.118-3.018-4.248-6.148-7.601-7.489 3.129-.671 5.924-1.565 8.495-2.683 0 .447.112.894.112 1.341.111.783.335 1.9 1.229 1.9.559 0 1.006-.558 1.341-1.006.895-1.341 1.453-2.906 1.901-4.471 2.235-1.229 4.471-2.57 6.818-3.912-.112.447-.224.894-.335 1.565-.448 2.347 0 4.806.111 7.266.112 4.359-1.117 8.606-1.564 13.077-.336 4.136.111 8.495 1.341 12.408-2.795 8.606-2.347 18.666 1.006 26.938.223-.112.335-.336.559-.559.111.894.447 1.788 1.006 2.347 3.129-6.371 3.241-14.754.335-21.349 1.565-3.353 1.341-7.825-.447-11.066 1.676-3.689 2.124-8.16 1.229-12.184 2.012-2.682 2.348-7.042.783-10.06 1.006-.335 1.565-1.117 1.788-2.123 1.9 4.024 3.465 8.271 4.471 12.63-2.235.671-.782 5.142.112 6.707-.447-.112-.671.447-.782.894-.895 4.695-.559 9.613.894 14.196.112 0 .335 0 .447-.112-.447 1.677-.447 3.465.224 5.03.111.335.223.559.558.671.671.223 1.118-.559 1.342-1.342.782-3.688.67-7.489-.336-11.177-.111-.447-.335-1.006-.223-1.453 0-.447.223-.783.335-1.23.783-2.571.224-5.142-.894-7.489 2.124-1.006 1.565-4.359-.559-4.806 1.006-7.489-2.347-15.09-5.924-22.02.447-.224.894-.559 1.341-.783 3.465.559 6.93.671 10.172 1.342-1.118 2.57.447 7.712 1.118 9.501-1.342 4.918-1.118 10.283.559 15.089-.112 0-.224 0-.224 0-.335.112-.559.448-.671.783-1.341 3.8-1.006 8.271.895 11.848.223.447.558.894 1.006.894.447 0 .782-.447 1.006-.894 1.229-2.571 1.453-5.477 1.676-8.271.112-.894.112-1.677.224-2.571.111-1.118.112-2.124.223-3.242 0-2.012-.112-4.024-.223-5.924 0-.67-.112-1.341-.112-1.9-.112-1.23-.112-2.459-.335-3.689-.224-1.341-.559-2.794-1.006-4.024.782.224 1.676-.447 1.9-1.341.335-1.118.223-2.906-.336-4.471.336.112.671.335 1.006.559 2.348 1.229 4.583 3.018 6.707 5.03-1.006 1.453-.559 4.694-.223 5.924-.671.224-1.006 1.118-1.118 1.9-.447 3.018-.112 6.036.112 9.054.111 1.341.223 2.683.447 4.024.111 1.341.223 2.683.447 4.024.112 1.565.335 3.13.447 4.806.112.671.335 1.453.894 1.453.447 0 .783-.335 1.006-.782 1.341-2.124 1.9-4.806 1.565-7.265-.112-1.006-.335-1.901-.224-2.907.112-.67.336-1.229.559-1.9.783-2.571.336-5.477-1.229-7.712 0 .111.894-3.13.894-3.577 0-1.453-.559-2.795-1.341-3.912.223-.112.447-.224.67-.336 2.236 2.236 4.36 4.583 6.483 6.707-.223 2.012-.111 3.912.112 5.924.224-.224.559-.447.783-.671-.224 3.354-.336 6.595-.336 9.948.336 0 .671-.111.783-.447-.895 5.03-1.789 10.284-.559 15.202.111.447.223.894.559 1.118.782.67 1.676-.671 1.9-1.789.447-1.788.782-3.8.782-5.7 0-1.006-.112-2.012 0-3.018s.447-2.012.671-3.018c.782-3.354.559-6.93.112-10.284-.224-2.123-.336-8.159-1.901-9.054-.447-.335-1.341.112-2.123.336-1.789-4.695-5.254-8.831-9.278-11.849-4.583-3.353-11.289-7.041-17.102-7.712-.335 0-.782-.112-1.341-.112 7.936-4.024 18.555-8.16 34.204-12.072-18.443 0-36.998 9.837-53.876 17.549-.112-1.006-.336-2.124-.224-3.13.112-.894.447-1.676.671-2.459 1.006-3.353.447-7.265-1.677-10.171 0 .111 1.229-4.248 1.118-4.807-.112-1.676-.559-3.353-1.565-4.806 4.583-5.701 9.054-11.625 13.078-17.549.335 1.23.67 2.236.894 2.794-1.341 4.919-1.118 10.284.559 15.09-.112 0-.224 0-.224 0-.335.112-.559.447-.67.783-1.342 3.8-1.006 8.271.894 11.848.223.447.559.894 1.006.894s.782-.447 1.006-.894c1.229-2.571 1.453-5.477 1.676-8.271.112-.895.112-1.677.224-2.571.112-1.118.112-2.124.224-3.242 0-2.012-.112-4.024-.224-5.924 0-.671-.112-1.341-.112-1.9-.112-1.23-.112-2.459-.335-3.689-.224-1.341-.559-2.794-1.006-4.024.782.224 1.676-.447 1.9-1.341.224-.671.224-1.565.112-2.571 4.471-.782 9.613-3.465 13.86-5.142-.223 1.006-.447 2.124-.447 3.018-.335 4.248 1.118 11.178 0 12.296-1.118 1.117 0 6.818 1.118 7.824 1.788-1.006 2.459-9.836 2.124-13.19-.112-.67-1.006-1.788-1.006-2.459.111-1.9 1.564-3.688 1.453-5.588 1.006-.671 1.676-1.901 1.788-3.13-.112 3.018.335 4.583 1.23 7.712.223.671.111 3.354 1.788 3.577-1.341 2.683-1.565 5.254-1.677 8.272 0 1.341.336 3.018 1.677 3.353-1.118 2.571-1.565 5.477-1.229 8.16.111.782.111 2.459.782 2.123 2.235-.894 5.253-5.812 3.353-9.165-.223-.447-.447-.783-.559-1.23 0-.447.224-.894.448-1.229.558-1.118.894-2.459 1.006-3.689 0-.335-.001-.671-.224-.894-.224-.224-.559-.224-.894-.447-.783-.336-.895-1.342-.783-2.124s.447-1.565.336-2.459c-.112-.783-.895-1.565-1.677-1.23.335-2.347 2.794-6.483.223-7.153-.67.111-1.229.223-1.9.335.336-.894.671-1.788.559-2.683-.112-.782-.782-1.565-1.453-1.676 3.018-.447 6.148-.671 9.166-.559 0 1.006 0 2.012.223 3.018.224-.112.447-.336.671-.447-.112 2.235-.224 4.471-.224 6.706.224 0 .448-.112.671-.335-.671 3.353-1.341 6.818-.447 10.06.112.335.224.559.447.782.559.447 1.23-.447 1.565-1.229.335-1.23.559-2.571.559-3.801 0-.67-.112-1.341 0-2.012.112-.67.335-1.341.559-2.012.559-2.235.447-4.583.111-6.93-.111-.782-.223-2.235-.447-3.577 2.683.224 5.254.447 7.936.783.224 0 .448.112.783.112-.447 4.471.112 9.053 1.677 13.301.223 0 .447 0 .559-.112-.559 1.9-.559 4.024.335 5.924.112.336.335.671.671.783.782.335 1.453-.671 1.564-1.565 1.006-4.248.895-8.719-.335-12.966-.112-.559-.335-1.118-.335-1.677 0-.447.223-1.006.335-1.453.112-.559.224-1.006.335-1.565 2.795.447 5.589 1.118 8.272 1.9.559.559 1.229 1.118 1.453 2.012.223.783-.112 1.677-.335 2.348-1.006 3.018-2.124 7.824-1.342 9.612.447 1.006.559-.335.783-.447-.559 2.459-.336 7.042.223 7.489 1.677 2.348 3.689-7.042 2.683-10.73-.112-.447-.224-.783-.335-1.23 0-.447 0-.894.111-1.341.336-2.124.671-4.248.895-6.371h.111c.447.67.447 1.565.671 2.347.224.894 1.118 1.677 1.565 1.006.335.894.112 1.9.112 2.906s.67 2.124 1.453 1.789c0 4.024-.559 8.048-1.789 11.736-.67 1.9-.67 6.819-.112 7.936.895 1.23 1.23-1.453 1.565-2.347 1.677-4.583 3.242-9.277 3.13-14.307 0-3.466-1.118-7.154-3.13-9.501 0 0 .112 0 .112.111-.112-.111-.223-.223-.447-.335 0 0 0 0-.112-.112s-.111-.112-.335-.223c-4.359-3.912-9.725-6.372-15.425-7.936-.224-1.23-.671-2.46-1.341-3.577 2.011-.894 2.123-3.354.894-4.695 6.036-2.571 11.624-5.812 16.207-10.2833-.894 1.7884-1.229 3.5768-.782 5.2533.112.335.559.671.782.447-2.012 2.236-2.123 5.254-.223 7.489-1.23 2.907-.671 6.148 1.453 8.831.894-.447 1.118-1.342 1.118-2.124.111-1.453.223-2.794.447-4.248.111-1.341.223-2.682 0-4.024-.224-1.006-.559-2.012-.559-3.018 0-1.341.447-3.129-1.23-3.912 1.565-1.4528 2.124-3.4647 1.453-5.2532.224-.1117.671-.1118.783-.3353zm-31.968-43.2575c.112.2236.223.4471.447.6707.559.6706.447 1.5648.223 2.459-.223.8943-.559 1.6767-.447 2.4591.112.7825 1.006 1.6766 1.789 1.3413-.559 1.7884-1.118 3.5769-1.677 5.4771-2.124.5589-4.136 1.5649-5.924 2.7944 2.794-4.5828 4.695-9.8363 5.589-15.2016zm-76.567 192.591c.112 0 .223 0 .335-.112 0 .335-.112.671-.112.894-.111-.223-.111-.559-.223-.782zm-11.178-79.361c0 2.57.447 5.141 1.453 7.6-.223.671-.223 1.342-.223 2.124-2.459 2.124-4.918 4.024-7.266 5.701 1.23-4.136 3.689-9.501 6.036-15.425zm31.186-3.018c.223 1.788.335 3.576.559 5.365.112 1.565.335 3.13.447 4.583-9.725 4.247-18.89 7.265-27.162 6.818 6.595-6.259 16.208-16.431 25.821-28.168-.448 3.689-.112 7.601.335 11.402zm66.395-49.07c-.335-.112-.559.111-.671.447-3.912-.783-7.824-1.342-11.736-1.9 3.577-1.118 7.265-2.348 10.73-3.689.112 1.788 1.006 4.024 1.677 5.142z"/><path d="m647.064 180.665c-1.565-1.677-3.353-3.354-5.589-3.577 2.124 8.16 9.166 13.86 15.314 19.673 2.012 1.9 4.135 4.135 4.694 6.818.894 3.8-1.118 7.601-3.241 10.954-2.124 3.353-4.583 6.707-4.471 10.619 1.005.67 2.347-.559 2.906-1.677 2.682-4.918 5.365-9.724 7.936-14.643 3.353-6.147-2.012-11.848-6.148-16.207-3.8-4.024-7.601-8.048-11.401-11.96z"/><path d="m723.742 127.571c4.024.559 8.495 1.789 11.29 4.695 1.788 1.9 5.589 2.235 8.942 2.794-4.248-6.93-11.625-11.736-19.561-12.742-2.794-.336-5.365-.112-7.824.335 7.489-3.465 14.419-7.489 19.672-12.854-5.141.559-10.73 2.012-16.095 4.024-.895-4.024-1.901-8.048-2.795-12.072 2.236.112 3.353 2.459 6.595.223-3.912-.111-4.471-5.3649-6.707-8.7182 1.453-.1117 2.907-.2235 3.801-.1117 2.571.3353 3.353 3.5768 4.583 5.8124 2.123 4.3595 7.489 6.8185 12.071 5.4765-.894-2.123-2.012-4.135-3.465-5.9237 1.789-.2235 3.577-.5589 5.477-.7824-2.235-1.3413-4.135-3.1297-5.477-5.3653-.559-1.006-1.117-2.0119-1.9-2.9061-.447-.4471-.894-.7825-1.341-1.006 1.229-.2236 2.459-.5589 3.688-1.006 5.366-2.1237 9.166-6.8184 12.631-11.2894-3.353 1.5648-6.818 3.018-10.172 4.5828-4.023 1.7884-8.047 3.4651-12.518 3.9122-3.13.3353-6.931-.5589-9.837 1.1178-.894.5588-1.676 1.2295-2.347 1.9001 0-.3353.112-.5589.112-.8942.559-6.5948.559-13.3014.112-19.8962.558 1.006 1.005 2.012 1.229 2.9062 1.006 3.9122.782 7.489 4.471 10.1717 3.018 2.2355 8.16 1.9002 9.948-1.4531-3.465-1.006-5.924-4.9182-5.03-8.4951 2.571 0 5.03-.5588 7.378-1.5648-3.018-.1118-5.03-3.1298-6.26-5.9242-1.9-4.2475-9.836-10.507-12.854-5.9241-.783-5.2535-1.9-10.3952-3.13-15.5369 1.118 1.6766 2.124 3.0179 2.571 3.6886 4.359 5.2535 12.631 6.7065 18.443 3.2415-3.242-.6707-6.483-2.012-9.389-3.6886 3.353.6706 6.93-.4471 9.389-2.6826-3.465.1117-6.595-1.7885-9.166-4.1358s-4.583-5.03-7.153-7.3773c-1.006-.8942-2.236-1.7883-3.577-1.9001-2.348-.2236-3.689.2235-4.471 1.1178-1.342-4.2476-2.795-8.4951-4.248-12.7426 0-.3353-.112-.7824-.223-1.1178 1.117.8943 2.459 1.6767 3.688 2.3473 2.906 1.6767 5.477 2.7944 8.831 2.2356 1.676-.2236 6.147-3.8004 7.153-3.5768-2.459-.4471-4.806-1.0061-7.265-1.4532 1.9-1.1178 3.8-2.3473 5.7-3.465-7.6 1.5648-9.724-4.80643-13.86-9.16571-4.583-4.80639-9.389-1.900218-9.277 4.80637 0 1.34132.447 2.68266 1.006 3.80044-3.13 1.3413-5.813 12.1836-8.384 15.0898 2.907-.5589 5.477-2.2355 7.378-4.5828-2.012 2.3473-2.683 7.1537-4.695 9.9481 3.912-.8942 7.601-5.0299 9.166-9.6128.894 5.5888 1.676 11.1776 2.347 16.8782-.559-.4471-1.565-.7824-3.242-.6706-2.123.1118-4.023 1.4531-5.365 3.1297-1.341 1.6767-2.124 3.6887-3.13 5.4771-1.788 3.3533-4.023 6.3712-6.706 9.1656 3.018-.5589 5.924-2.0119 8.271-4.0239-.559 4.3593-2.794 8.495-6.259 11.1776 2.012 1.6767 5.03 1.2296 7.265-.2235-.223.8942-.335 1.6766-.558 2.4591-1.342 5.2535-5.03 8.1596-9.837 10.7305 2.571 1.7884 6.483 1.5649 9.054-1.5648-.224 3.465-2.906 6.7066-6.371 7.489 2.906 2.7944 7.936 1.2295 10.507-1.7885 2.012-2.3473 5.924-8.2714 8.048-13.5249 0 7.7126-.559 15.4251-1.9 23.0259-.112-.3353-.336-.5589-.448-.7824-1.453-1.6767-4.135-2.4591-6.036-1.2295-.894.5588-1.564 1.5648-2.011 2.5708-1.23 2.2355-2.124 4.5828-2.795 7.0419-2.012-4.2475-4.359-8.1596-5.924-10.8423.559 6.1477 3.241 14.3073 4.918 22.1313-.671-.223-1.341-.447-2.012-.335-1.677.112-3.13 1.23-4.471 2.347-3.018 2.46-5.924 4.919-8.942 7.378 2.347 0 4.695-.671 6.706-1.789.336 1.23-.67 2.348-1.564 3.13-2.571 2.124-5.701 3.8-8.943 4.695-.447.111-1.005.447-.782.894.112.112.224.223.335.335 3.354 2.012 6.931 4.024 10.731 4.359 1.341.112 2.683-.111 3.912-.447-2.682 2.795-5.812 5.254-9.277 7.154-1.006.559-2.124 1.118-3.242 1.565-.335-2.236-1.006-4.136-1.9-5.142-1.453-1.676-4.136-2.459-6.036-1.229-.671.447-1.23 1.117-1.677 1.9 0-2.124-.335-4.359-.894-6.483-1.453-5.03-4.247-9.613-6.93-14.196 2.236 11.066 4.359 23.25-1.118 33.086-1.229-10.172-5.253-19.896-11.513-27.944 2.459 6.93 5.03 14.084 5.701 21.461.112 1.677.223 3.353.112 5.03-.895-1.341-2.124-2.459-3.577-3.242-1.453-.894-3.577-1.341-4.918-.223-.447.335-.671.782-.783 1.341-1.453-3.353-3.129-6.595-4.806-9.836-1.118 5.142-.671 10.73 1.341 15.649.783 2.012 1.789 3.912 2.571 5.924 0 .111 0 .223.112.223-.336-.335-.783-.559-1.23-.894-1.453-.894-3.577-1.341-4.918-.224-1.118 1.006-1.118 2.795-.894 4.36.559 3.688 1.677 7.265 3.465 10.619.112.335.335.558.447.894-1.006 1.9-1.9 3.912-2.794 5.812-6.819 16.096-16.096 43.369-7.601 60.136 4.471-3.801 4.583-10.284 4.918-15.761.894-12.966 3.8-25.82 8.495-38.004 2.347-5.812 5.142-11.624 9.725-15.984 4.359-4.135 9.724-6.594 15.313-8.83-.112.112-.112.224-.224.335-1.117 1.901-2.123 3.913-2.906 5.924-2.235 6.26-1.453 13.19 1.118 19.338 1.9-3.353 3.465-7.042 4.583-10.843 1.006 2.683 1.677 5.589 1.9 8.384 2.794-4.807 4.695-10.06 6.483-15.314 2.459 5.03 4.583 10.284 6.148 15.649 1.453 4.806 2.459 9.725 4.806 14.084 2.012-10.284 1.118-21.238-2.571-30.962-.559-1.565-1.676-4.248-3.018-6.483 2.795.894 5.589 1.9 8.384 2.347 4.359.671 8.942 0 13.413.112 6.595.223 12.966 2.235 19.561 2.794 5.477.447 10.954-.223 16.319-.894-8.271-2.683-16.543-5.253-24.926-7.601 1.676-1.341 3.13-3.241 5.03-4.359-2.012-.559-3.801-2.124-4.807-4.248 2.348.671 4.807.448 7.042-.558-2.012-.671-3.8-2.236-4.918-4.36-.894-1.565-1.453-3.465-2.347-5.03-1.118-1.9-3.465-3.576-6.036-4.582 2.124-.336 4.136-1.118 6.259-1.677 3.577-.894 7.601-1.118 11.513-.671zm-24.591-72.2073c-.335 0-.558.1117-.894.2235.559-2.1237.671-4.2475 1.118-6.4831.335-1.6766 2.347-4.5827 3.242-6.9301.559 5.03 1.006 10.0599 1.229 15.0899-1.118-1.2296-2.794-2.1238-4.695-1.9002zm-56.782 101.8283c0-.335 0-.671 0-1.006.112.224.224.335.335.559-.111.112-.223.223-.335.447zm56.671-54.1c-.894 3.13-2.124 6.26-3.465 9.278-.112-3.018-1.342-6.707-2.795-10.507 1.9.335 4.36 1.006 6.26 1.229zm-20.567 45.381c5.589-3.688 10.507-8.159 14.754-13.301-.67 5.254 2.795 10.842 6.819 14.643-7.154-1.677-14.643-2.795-21.573-1.342zm22.467-24.255c2.794-4.806 5.03-9.948 6.818-15.313.336 1.341.671 2.794 1.006 4.247.336 1.677 1.006 3.353 2.012 4.918-3.465 1.789-6.818 3.801-9.836 6.148z"/><path d="m760.294 304.626c-1.118-.112-2.124.224-3.018.783-2.012-1.565-4.695-2.459-7.266-3.018-9.501-2.236-18.667-2.683-25.932 4.918-.447.559-1.006 1.118-1.453 1.676 1.788-4.135 3.8-8.159 6.148-12.071.782.67 1.676 1.006 2.794 1.117 2.794.224 5.142-1.9 5.365-4.694.224-2.795-1.9-5.142-4.694-5.366-2.795-.223-5.142 1.901-5.366 4.695-.111 1.23.336 2.459 1.006 3.465-2.794 3.242-5.03 6.93-6.594 10.842-1.006 2.46-1.789 5.03-2.459 7.601-.112.112-.112.224-.224.447.782-4.359 1.453-8.83 1.341-13.301-.223-6.259-2.123-12.631-6.595-16.99-4.247-4.247-10.171-6.26-16.207-7.042.223-2.794-1.9-5.142-4.695-5.365-2.794-.224-5.141 1.9-5.365 4.694-.224 2.795 1.9 5.142 4.695 5.366 2.123.111 4.135-1.118 4.918-3.018.335.111.782.335 1.118.447 4.247 1.9 8.718 3.912 11.848 7.377 3.018 3.353 4.583 7.824 5.812 12.184 0 .111 0 .112.112.223-4.136-3.912-10.842-3.577-16.208-1.788 1.006 1.006 2.124 1.9 3.354 2.571-3.018 2.235-5.701 4.918-7.936 7.936 1.676.67 3.576.67 5.141 0-1.9 1.676-3.577 3.688-4.806 5.924 6.371-.112 12.631-3.13 16.543-8.16.335-.447.782-1.006 1.341-1.117 1.341-.448 2.347 1.117 2.683 2.347 2.682 8.607-1.565 17.661-6.371 25.261-2.124-4.918-6.148-9.948-11.513-10.171-4.248-.224-8.16 2.794-10.284 6.483-2.124 3.688-2.906 8.048-3.577 12.183 1.23-1.453 2.459-2.906 3.689-4.471-.224 4.583-.112 9.278.447 13.86 2.683-2.459 5.03-5.253 7.042-8.383.671 2.124 1.453 4.136 2.124 6.26 2.57-4.024 2.347-9.613-.336-13.637-1.118-1.565-2.571-3.018-2.571-4.918.112-3.353 5.142-4.248 7.937-2.459 3.353 2.124 4.806 6.371 4.806 10.283s-1.341 7.825-2.683 11.513c-1.9 5.589-4.806 11.401-5.812 17.214 3.241-4.248 6.706-9.389 8.942-14.308 1.788-4.135 2.012-8.83 4.024-12.854 2.347-4.695 6.707-9.613 8.383-14.531-2.012 5.924-1.341 12.743 1.9 17.996.671-2.571 1.342-5.03 2.012-7.601 2.571 3.018 6.26 5.142 10.172 5.813-1.118-3.242-2.794-6.148-4.806-8.831 2.906 1.23 5.812 2.348 8.718 3.577-1.9-3.465-3.8-6.93-6.595-9.613-2.794-2.682-6.706-4.582-10.507-4.135.783-3.689 3.018-6.93 6.148-8.942 1.9 4.694 5.365 8.83 9.613 11.513-.335-2.012-.559-4.024-.894-6.036 3.241 2.459 7.601 3.465 11.625 2.682-3.466-3.576-7.601-6.483-12.184-8.718 3.577-.894 7.377-.894 11.066-.112-3.689-4.583-10.507-5.701-16.096-3.8-4.024 1.453-7.377 4.135-10.284 7.377.783-1.677 1.454-3.465 2.46-4.807 2.906-4.023 7.377-6.483 12.295-7.265 4.583-.782 9.277-.335 13.86.335 2.459.336 4.918.783 7.266 1.789-.671.782-1.23 1.788-1.342 3.018-.223 2.794 1.901 5.141 4.695 5.365s5.142-1.9 5.365-4.695c.783-2.235-1.341-4.694-4.135-4.918z"/><path d="m120.442 433.259-42.3964-11.457c-3.8119-1.058-6.1996-4.997-5.089-8.894l37.5504-139.207c1.058-3.812 4.998-6.199 8.895-5.089l42.395 11.457c3.812 1.058 6.2 4.997 5.089 8.894l-37.55 139.207c-1.058 3.811-5.03 6.062-8.894 5.089z"/><path d="m258.887 420.901-58.1 1.2c-3.8.1-6.9-2.9-7-6.7l-3.8-190.3c-.1-3.8 2.9-6.9 6.7-7l58.1-1.2c3.8-.1 6.9 2.9 7 6.7l3.8 190.3c.1 3.8-2.9 6.9-6.7 7z"/><path d="m201.487 415.699-25.4 4.1c-1.8.3-3.4-.9-3.7-2.7l-27.6-172.8c-.3-1.8.9-3.4 2.7-3.7l25.4-4.1c1.8-.3 3.4.9 3.7 2.7l27.6 172.8c.3 1.8-.9 3.5-2.7 3.7z"/><path d="m488.282 426.049-11.102 3.815c-5.354 1.872-11.142-.953-13.014-6.308l-52.999-152.043c-1.872-5.354.953-11.142 6.307-13.014l11.102-3.814c5.354-1.872 11.142.953 13.014 6.307l52.999 152.043c1.872 5.354-.953 11.142-6.307 13.014z"/><path d="m238.387 420.999-19.7 1.2c-3.4.2-6.4-2.4-6.6-5.8l-10-164.6c-.2-3.4 2.4-6.4 5.8-6.6l19.7-1.2c3.4-.2 6.4 2.4 6.6 5.8l10 164.6c.3 3.4-2.4 6.4-5.8 6.6z"/><path d="m312.287 421.699-20-6.2c-.9-.3-1.4-1.2-1.1-2.1l62.1-200.3c.3-.9 1.2-1.4 2.1-1.1l20 6.2c.9.3 1.4 1.2 1.1 2.1l-62.1 200.3c-.2.8-1.2 1.3-2.1 1.1z"/><path d="m395.087 417.101-21-.1c-.9 0-1.7-.8-1.7-1.7l1.2-209.8c0-.9.8-1.7 1.7-1.7l21 .1c.9 0 1.7.8 1.7 1.7l-1.2 209.8c0 .9-.8 1.7-1.7 1.7z"/><path d="m418.887 421.3-21-.1c-.9 0-1.7-.8-1.7-1.7l1.3-222.8c0-.9.8-1.7 1.7-1.7l21 .1c.9 0 1.7.8 1.7 1.7l-1.3 222.8c0 1-.7 1.7-1.7 1.7z"/><path d="m348.387 420.4-14.8-5.1c-.9-.3-1.4-1.3-1.1-2.2l25.8-75.6c.3-.9 1.3-1.4 2.2-1.1l14.8 5.1c.9.3 1.4 1.3 1.1 2.2l-25.8 75.6c-.4.9-1.4 1.4-2.2 1.1z"/><path d="m294.587 420.6-40.1-5.3c-2.3-.3-4-2.4-3.7-4.8l22-166.5c.3-2.3 2.4-4 4.8-3.7l40.1 5.3c2.3.3 4 2.4 3.7 4.8l-22 166.5c-.3 2.3-2.4 4-4.8 3.7z"/><path d="m304.887 243.301c.6 1.1 1.3 2.4 2.8 2.9 1.4.5 3 .1 4.5-.2 12-2.9 24-5.8 35.9-8.7 2.5-.6 5.3-1.5 5.9-3.4.3-1-.1-2-.5-2.9-1.5-3.7-2.6-10.2-5.4-12.5-1.9-4.1-25.3 3.5-38 6.1-5.1 1-12.7 1.5-12.7 5.2.1 3.4 5.7 10.1 7.5 13.5z"/></g></svg>