<svg fill="none" height="960" viewBox="0 0 1520 960" width="1520" xmlns="http://www.w3.org/2000/svg"><g fill="#0c021c"><path d="m1177 112.871-5.8 80.129-70.2-32.848v-54.249l38.29-20.903z" stroke="#0c021c"/><path d="m1100.06 106.722c3.74 3.954 7.22 8.524 14.27 9.576-5.51-7.291-9.78-15.234-12.64-23.5399 3.22 2.7928 5.46 5.5493 11.19 6.6374-5.29-7.8706-9.6-16.2128-12.86-24.8452 3.21 2.684 6.12 5.0779 10.74 5.9846-4.89-5.5131-8.67-11.7516-11.05-18.3165 2.73 1.7772 5.42 3.627 9.69 3.8446-9.56-8.995-13.96-20.2388-18.89-32.063-3.79 14.218-4.63 26.8401-15.59 36.0165 4.71-.8342 8.32-3.4819 12.02-6.4199-4.05 6.3836-9.42 12.1506-15.81 16.9746 5.68-.6166 11.01-3.1193 14.62-6.8551-3.48 6.166-8.54 11.7153-14.75 16.1403 5.64-.8705 11.01-3.0104 15.37-6.1659-3.79 6.6012-8.5 12.8034-13.96 18.4615 6.34-1.705 12.06-5.0415 16.16-9.5028-1.81 5.9121-5.68 11.3528-10.92 15.5238 5.42-.871 10.43-3.228 14.18-6.674.79 6.892 1.45 14.363-3 20.167-2.81 3.663-7.39 6.238-10.08 9.974-.75 1.015-1.32 2.249-.92 3.409.26.762.92 1.379 1.58 1.923 5.42 4.642 12.68 8.269 20.43 8.015 8.24-.29 18.45-7.109 14.14-14.29-2.43-4.026-6.04-7.508-8.37-11.643-1.67-2.72-3.08-10.446-5.55-12.332z"/><path d="m1193.09 190.471c3.36 5.704 5.46 11.55 13.03 14.327-3.83-8.443-6.05-16.893-6.59-24.979 3.51 3.489 6.96 7.024 10.48 10.513-1.07-12.489-4.49-19.236-6.33-26.147 2.81 4.306 4.04 7.22 10.18 9.76-3.73-6.723-5.95-13.513-6.49-19.992 2.89 3.016 4.45 5.183 9.67 7.535-5.89-14.131-8.36-22.656-10.82-34.756-6.29 9.11-11.96 14.908-29.49 22.299 5.09.94 9.1.743 15.68.214-6.63 3.375-14.62 5.639-23.43 6.687 6.6 2.065 13.46 2.443 18.77 1.071-5.01 5.962-16.33 15.072-24.4 17.172 7.74 1.498 15.27 1.368 21.34-.401-4 3.984-10.11 6.682-17.46 7.709 6.37 1.733 12.87 2.078 18.21 1.018-1.34 5.994-3.08 12.416-10.02 15.141-4.41 1.716-10.37 1.732-14.64 3.564-1.19.512-2.24 1.244-2.18 2.337.03.73.58 1.506 1.13 2.283 4.61 6.235 11.64 12.539 20.46 15.796 9.37 3.515 23.2 2.57 20.66-5.286-1.41-4.382-4.31-8.851-5.66-13.331-.86-2.932.04-9.898-2.1-12.534z"/><path d="m1080 97.1024c-4.87-4.5386-7.88-8.6603-10.3-14.7867 2.69 1.9727 5.26 1.5557 8.64 1.4755-4.62-5.0198-8.11-11.0018-10.17-17.4329 2 1.5878 4.66 2.3896 7.23 2.133-2.92-3.448-5.58-7.1046-7.95-10.9216 1.89.6736 3.73 1.4595 6.11.6897-4.63-2.6783-5.72-5.5811-8.28-8.2594-.28.3849-.56.8179-.83 1.299-3.48 5.2283-6.03 6.0783-8.09 7.1849 0 0 2.84.433 4.84-.7377-1.76 3.3518-3.9 6.5112-7.2 7.4574 3.54.9142 4.73.0161 6.85-1.3632-2.33 4.3623-4.54 7.4254-8.09 10.9216 2.43-.5452 4.76-1.5075 6.84-2.8547-2.91 5.0519-6.04 7.1207-9.67 11.3386 4.15-.0321 7.03.1925 8.76-2.6301-2 5.2603-5.04 10.1357-8.93 14.2895 5.37-.0963 8.28-3.1755 10.92-7.0245-2.96 7.0886-7.44 13.5682-13.08 18.9082 6.44-.513 10.38-4.218 13.86-8.5319-3.3 8.6279-10.56 24.1689-16.46 31.3859 5.81 3.576 11.39 8.147 22.14 3.159.58-7.04-2.87-19.245-.51-27.809 2.49 3.721 6.06 5.645 10.6 6.287-3.82-5.982-6.26-10.232-8.27-16.9842 3.1 2.3576 7.18 3.384 11.04 2.8066z"/><path d="m1280.73 702.136c16.2-132.7 3.2-267.5-38.2-396.9-10.4-32.7-22.9-65.3-44.6-94.5-18.9-25.4-66.83-49.936-86.93-74.736-46-38-59-86.5507-87.27-91.4636-37.398-6.5-50.63 31.8636-76.73 53.4636s-67.668 25.736-84.168 52.436c-14.7 23.8-30.3 47.2-46.9 70.3-14.1 19.6-29.9 39.8-54.9 51.5-25.8 12.1-59.7 13.1-86.7 2.7-31.5-12.2-50.7-37.2-78.3-54-32.8-19.9-80.7-26.7-117.2-11.2-20.2 8.6-35.3 22.8-47.8 37.8-35 41.9-53.3 90.6-79.8 136.1s-64.8 90.3-123.8 110.9c-26.1 9.1-54.9 13-81 22.2-48.3004 17.1-83.4004 51.4-104.8004 88.7-21.4 37.4-30.8 78-39.99995 118.3-10.4 45.5 30.29995 96.6 82.69995 119.6 52.4004 22.9 115.0004 26.7 175.3004 27.5 62.4.9 124.8-.7 186.9-4.7 46.1-3 93.2-7.3 138.3 1.1 107.2 20 180.9 107.4 290.6 116.1 42.6 3.4 85.4-6 124.598-19.2 142.8-48.5 266.1-142.5 280.7-262z"/><path d="m902.089 174.953c145.041 142.391 307.971 268.671 484.321 375.096 35.4 21.33 71.87 42.434 98.86 72.841 27 30.407 43.07 72.614 30.23 110.396-20.51 60.7-99.21 80.783-166.04 89.292-115.29 14.636-231.66 22.465-347.91 23.373-29.757.227-60.11 0-88.544-8.169-46.069-13.275-83.14-45.951-113.373-81.351-51.108-59.906-109.621 25.141-142.133-45.431-64.185-139.441-93.492-446.187-69.497-596.634 11.757-73.6354 27.713-175.068 119.612-115.274939 73.662 47.766339 132.808 115.387939 194.474 175.861939z"/><path d="m600.169-19.1291c-132.109 50.4125-167.169 252.1291-210.669 330.6291l64.548 94.499 545.952-136.166-44-159.833c-55.212-41.0578-250.143-169.4591-355.831-129.1291z"/></g><path d="m587.567 96.8312c-1.682-.532-3.451-.8312-5.337-.8312-36.317 0-30.951 104.867-30.951 104.867l62.54.133s0 0 0-.033l-51.836-.1c-.029 0-4.844-94.194 25.584-104.0358z" fill="#ce2009"/><path d="m587.568 96.832c-30.429 9.842-25.614 104.036-25.614 104.036l51.836.1c.087-1.63 4.003-94.394-26.222-104.136z" fill="#ff4000"/></svg>